<mxfile host="app.diagrams.net" modified="2021-10-07T18:47:28.953Z" agent="5.0 (Windows NT 10.0; Win64; x64) AppleWebKit/537.36 (KHTML, like Gecko) Chrome/94.0.4606.71 Safari/537.36" etag="wsBW9-dp3sk3hP8kgweO" version="14.9.9" type="github">
  <diagram id="TIzjwyOhWf1TLrv15KJ-" name="Page-1">
    <mxGraphModel dx="2298" dy="1853" grid="1" gridSize="10" guides="1" tooltips="1" connect="1" arrows="1" fold="1" page="1" pageScale="1" pageWidth="827" pageHeight="1169" math="0" shadow="0">
      <root>
        <mxCell id="0" />
        <mxCell id="1" parent="0" />
        <mxCell id="tzGRusyJIGuZW5n90SKh-5" value="JOB ATUALIZA DATA BASE GEAP" style="outlineConnect=0;fontColor=#232F3E;gradientColor=none;fillColor=#232F3E;strokeColor=none;dashed=0;verticalLabelPosition=bottom;verticalAlign=top;align=center;html=1;fontSize=12;fontStyle=0;aspect=fixed;pointerEvents=1;shape=mxgraph.aws4.gear;" vertex="1" parent="1">
          <mxGeometry x="-69" y="560" width="78" height="78" as="geometry" />
        </mxCell>
        <mxCell id="tzGRusyJIGuZW5n90SKh-8" value="VIEW BENEFICIÁRIO" style="verticalLabelPosition=bottom;html=1;verticalAlign=top;align=center;strokeColor=none;fillColor=#00BEF2;shape=mxgraph.azure.startup_task;pointerEvents=1;" vertex="1" parent="1">
          <mxGeometry x="270" y="60" width="100" height="100" as="geometry" />
        </mxCell>
        <mxCell id="tzGRusyJIGuZW5n90SKh-13" value="VIEW PRESTADOR" style="verticalLabelPosition=bottom;html=1;verticalAlign=top;align=center;strokeColor=none;fillColor=#00BEF2;shape=mxgraph.azure.startup_task;pointerEvents=1;" vertex="1" parent="1">
          <mxGeometry x="270" y="210" width="100" height="100" as="geometry" />
        </mxCell>
        <mxCell id="tzGRusyJIGuZW5n90SKh-14" value="VIEW PRODUTOS" style="verticalLabelPosition=bottom;html=1;verticalAlign=top;align=center;strokeColor=none;fillColor=#00BEF2;shape=mxgraph.azure.startup_task;pointerEvents=1;" vertex="1" parent="1">
          <mxGeometry x="270" y="350" width="100" height="100" as="geometry" />
        </mxCell>
        <mxCell id="tzGRusyJIGuZW5n90SKh-15" value="VIEW FINANCEIRO" style="verticalLabelPosition=bottom;html=1;verticalAlign=top;align=center;strokeColor=none;fillColor=#00BEF2;shape=mxgraph.azure.startup_task;pointerEvents=1;" vertex="1" parent="1">
          <mxGeometry x="270" y="510" width="100" height="100" as="geometry" />
        </mxCell>
        <mxCell id="tzGRusyJIGuZW5n90SKh-16" value="DATA BASE GEAP" style="aspect=fixed;perimeter=ellipsePerimeter;html=1;align=center;shadow=0;dashed=0;spacingTop=3;image;image=img/lib/active_directory/databases.svg;" vertex="1" parent="1">
          <mxGeometry x="-150" y="200" width="240" height="235.2" as="geometry" />
        </mxCell>
        <mxCell id="tzGRusyJIGuZW5n90SKh-17" value="" style="endArrow=classic;html=1;exitX=-0.01;exitY=0.83;exitDx=0;exitDy=0;exitPerimeter=0;" edge="1" parent="1" source="tzGRusyJIGuZW5n90SKh-8" target="tzGRusyJIGuZW5n90SKh-16">
          <mxGeometry width="50" height="50" relative="1" as="geometry">
            <mxPoint x="190" y="150" as="sourcePoint" />
            <mxPoint x="100" y="220" as="targetPoint" />
          </mxGeometry>
        </mxCell>
        <mxCell id="tzGRusyJIGuZW5n90SKh-18" value="" style="endArrow=classic;html=1;exitX=0;exitY=0.5;exitDx=0;exitDy=0;exitPerimeter=0;" edge="1" parent="1" source="tzGRusyJIGuZW5n90SKh-13">
          <mxGeometry width="50" height="50" relative="1" as="geometry">
            <mxPoint x="390" y="420" as="sourcePoint" />
            <mxPoint x="90" y="320" as="targetPoint" />
          </mxGeometry>
        </mxCell>
        <mxCell id="tzGRusyJIGuZW5n90SKh-19" value="" style="endArrow=classic;html=1;exitX=0;exitY=0.5;exitDx=0;exitDy=0;exitPerimeter=0;" edge="1" parent="1" source="tzGRusyJIGuZW5n90SKh-14" target="tzGRusyJIGuZW5n90SKh-16">
          <mxGeometry width="50" height="50" relative="1" as="geometry">
            <mxPoint x="390" y="420" as="sourcePoint" />
            <mxPoint x="440" y="370" as="targetPoint" />
          </mxGeometry>
        </mxCell>
        <mxCell id="tzGRusyJIGuZW5n90SKh-20" value="" style="endArrow=classic;html=1;entryX=1;entryY=0.944;entryDx=0;entryDy=0;entryPerimeter=0;" edge="1" parent="1" source="tzGRusyJIGuZW5n90SKh-15" target="tzGRusyJIGuZW5n90SKh-16">
          <mxGeometry width="50" height="50" relative="1" as="geometry">
            <mxPoint x="390" y="420" as="sourcePoint" />
            <mxPoint x="440" y="370" as="targetPoint" />
          </mxGeometry>
        </mxCell>
        <mxCell id="tzGRusyJIGuZW5n90SKh-26" value="" style="html=1;points=[];perimeter=orthogonalPerimeter;" vertex="1" parent="1">
          <mxGeometry x="470" y="-150" width="10" height="1210" as="geometry" />
        </mxCell>
        <mxCell id="tzGRusyJIGuZW5n90SKh-27" value="ERP SENIOR" style="outlineConnect=0;dashed=0;verticalLabelPosition=bottom;verticalAlign=top;align=center;html=1;shape=mxgraph.aws3.toolkit_for_eclipse;fillColor=#342074;gradientColor=none;" vertex="1" parent="1">
          <mxGeometry x="620" y="210" width="170.5" height="160" as="geometry" />
        </mxCell>
        <mxCell id="tzGRusyJIGuZW5n90SKh-28" value="WEB SERVICE" style="aspect=fixed;html=1;points=[];align=center;image;fontSize=12;image=img/lib/mscae/API_Management.svg;" vertex="1" parent="1">
          <mxGeometry x="730" y="500" width="117.62" height="98.8" as="geometry" />
        </mxCell>
        <mxCell id="tzGRusyJIGuZW5n90SKh-30" value="" style="endArrow=classic;html=1;entryX=1.01;entryY=0.57;entryDx=0;entryDy=0;entryPerimeter=0;exitX=0.18;exitY=0.21;exitDx=0;exitDy=0;exitPerimeter=0;" edge="1" parent="1" source="tzGRusyJIGuZW5n90SKh-27" target="tzGRusyJIGuZW5n90SKh-8">
          <mxGeometry width="50" height="50" relative="1" as="geometry">
            <mxPoint x="710" y="180" as="sourcePoint" />
            <mxPoint x="590" y="150" as="targetPoint" />
          </mxGeometry>
        </mxCell>
        <mxCell id="tzGRusyJIGuZW5n90SKh-31" value="" style="endArrow=classic;html=1;entryX=1;entryY=0.5;entryDx=0;entryDy=0;entryPerimeter=0;exitX=0;exitY=0.61;exitDx=0;exitDy=0;exitPerimeter=0;" edge="1" parent="1" source="tzGRusyJIGuZW5n90SKh-27" target="tzGRusyJIGuZW5n90SKh-13">
          <mxGeometry width="50" height="50" relative="1" as="geometry">
            <mxPoint x="590" y="250" as="sourcePoint" />
            <mxPoint x="440" y="370" as="targetPoint" />
          </mxGeometry>
        </mxCell>
        <mxCell id="tzGRusyJIGuZW5n90SKh-32" value="" style="endArrow=classic;html=1;entryX=1;entryY=0.5;entryDx=0;entryDy=0;entryPerimeter=0;exitX=0;exitY=0.87;exitDx=0;exitDy=0;exitPerimeter=0;" edge="1" parent="1" source="tzGRusyJIGuZW5n90SKh-27" target="tzGRusyJIGuZW5n90SKh-14">
          <mxGeometry width="50" height="50" relative="1" as="geometry">
            <mxPoint x="550" y="410" as="sourcePoint" />
            <mxPoint x="590" y="400" as="targetPoint" />
          </mxGeometry>
        </mxCell>
        <mxCell id="tzGRusyJIGuZW5n90SKh-33" value="" style="endArrow=classic;html=1;entryX=1;entryY=0.5;entryDx=0;entryDy=0;entryPerimeter=0;exitX=0.223;exitY=1.013;exitDx=0;exitDy=0;exitPerimeter=0;" edge="1" parent="1" source="tzGRusyJIGuZW5n90SKh-27" target="tzGRusyJIGuZW5n90SKh-15">
          <mxGeometry width="50" height="50" relative="1" as="geometry">
            <mxPoint x="390" y="420" as="sourcePoint" />
            <mxPoint x="570" y="530" as="targetPoint" />
          </mxGeometry>
        </mxCell>
        <mxCell id="tzGRusyJIGuZW5n90SKh-34" value="" style="endArrow=classic;html=1;entryX=0.997;entryY=0.625;entryDx=0;entryDy=0;entryPerimeter=0;" edge="1" parent="1" source="tzGRusyJIGuZW5n90SKh-28" target="tzGRusyJIGuZW5n90SKh-27">
          <mxGeometry width="50" height="50" relative="1" as="geometry">
            <mxPoint x="680.25" y="510" as="sourcePoint" />
            <mxPoint x="780" y="380" as="targetPoint" />
          </mxGeometry>
        </mxCell>
        <mxCell id="tzGRusyJIGuZW5n90SKh-35" value="" style="endArrow=classic;html=1;entryX=0.97;entryY=0.78;entryDx=0;entryDy=0;entryPerimeter=0;" edge="1" parent="1" source="tzGRusyJIGuZW5n90SKh-28" target="tzGRusyJIGuZW5n90SKh-15">
          <mxGeometry width="50" height="50" relative="1" as="geometry">
            <mxPoint x="640" y="690" as="sourcePoint" />
            <mxPoint x="690" y="640" as="targetPoint" />
          </mxGeometry>
        </mxCell>
        <mxCell id="tzGRusyJIGuZW5n90SKh-36" value="" style="endArrow=classic;html=1;entryX=0.93;entryY=0.84;entryDx=0;entryDy=0;entryPerimeter=0;" edge="1" parent="1" source="tzGRusyJIGuZW5n90SKh-28" target="tzGRusyJIGuZW5n90SKh-14">
          <mxGeometry width="50" height="50" relative="1" as="geometry">
            <mxPoint x="680" y="740" as="sourcePoint" />
            <mxPoint x="730" y="690" as="targetPoint" />
          </mxGeometry>
        </mxCell>
        <mxCell id="tzGRusyJIGuZW5n90SKh-37" value="" style="endArrow=classic;html=1;entryX=0.98;entryY=0.87;entryDx=0;entryDy=0;entryPerimeter=0;" edge="1" parent="1" source="tzGRusyJIGuZW5n90SKh-28" target="tzGRusyJIGuZW5n90SKh-13">
          <mxGeometry width="50" height="50" relative="1" as="geometry">
            <mxPoint x="580" y="160" as="sourcePoint" />
            <mxPoint x="630" y="110" as="targetPoint" />
          </mxGeometry>
        </mxCell>
        <mxCell id="tzGRusyJIGuZW5n90SKh-38" value="" style="endArrow=classic;html=1;entryX=0.96;entryY=0.89;entryDx=0;entryDy=0;entryPerimeter=0;" edge="1" parent="1" source="tzGRusyJIGuZW5n90SKh-28" target="tzGRusyJIGuZW5n90SKh-8">
          <mxGeometry width="50" height="50" relative="1" as="geometry">
            <mxPoint x="660" y="160" as="sourcePoint" />
            <mxPoint x="710" y="110" as="targetPoint" />
          </mxGeometry>
        </mxCell>
        <mxCell id="tzGRusyJIGuZW5n90SKh-39" value="DATABASE SENIOR" style="aspect=fixed;perimeter=ellipsePerimeter;html=1;align=center;shadow=0;dashed=0;spacingTop=3;image;image=img/lib/active_directory/databases.svg;" vertex="1" parent="1">
          <mxGeometry x="950" y="190" width="240" height="235.2" as="geometry" />
        </mxCell>
        <mxCell id="tzGRusyJIGuZW5n90SKh-40" value="" style="endArrow=classic;html=1;" edge="1" parent="1" source="tzGRusyJIGuZW5n90SKh-27" target="tzGRusyJIGuZW5n90SKh-39">
          <mxGeometry width="50" height="50" relative="1" as="geometry">
            <mxPoint x="840" y="290" as="sourcePoint" />
            <mxPoint x="890" y="240" as="targetPoint" />
          </mxGeometry>
        </mxCell>
        <mxCell id="tzGRusyJIGuZW5n90SKh-42" value="" style="endArrow=classic;html=1;entryX=1;entryY=0.21;entryDx=0;entryDy=0;entryPerimeter=0;" edge="1" parent="1" source="tzGRusyJIGuZW5n90SKh-39" target="tzGRusyJIGuZW5n90SKh-27">
          <mxGeometry width="50" height="50" relative="1" as="geometry">
            <mxPoint x="800" y="220" as="sourcePoint" />
            <mxPoint x="850" y="170" as="targetPoint" />
          </mxGeometry>
        </mxCell>
        <mxCell id="tzGRusyJIGuZW5n90SKh-43" value="CLONE DATA BASE SENIOR" style="aspect=fixed;perimeter=ellipsePerimeter;html=1;align=center;shadow=0;dashed=0;spacingTop=3;image;image=img/lib/active_directory/databases.svg;" vertex="1" parent="1">
          <mxGeometry x="-141" y="731.4" width="240" height="235.2" as="geometry" />
        </mxCell>
        <mxCell id="tzGRusyJIGuZW5n90SKh-44" value="" style="outlineConnect=0;fontColor=#232F3E;gradientColor=none;fillColor=#232F3E;strokeColor=none;dashed=0;verticalLabelPosition=bottom;verticalAlign=top;align=center;html=1;fontSize=12;fontStyle=0;aspect=fixed;pointerEvents=1;shape=mxgraph.aws4.gear;" vertex="1" parent="1">
          <mxGeometry x="1031" y="810" width="78" height="78" as="geometry" />
        </mxCell>
        <mxCell id="tzGRusyJIGuZW5n90SKh-45" value="" style="endArrow=classic;html=1;" edge="1" parent="1" source="tzGRusyJIGuZW5n90SKh-39" target="tzGRusyJIGuZW5n90SKh-44">
          <mxGeometry width="50" height="50" relative="1" as="geometry">
            <mxPoint x="1120" y="710" as="sourcePoint" />
            <mxPoint x="1170" y="660" as="targetPoint" />
          </mxGeometry>
        </mxCell>
        <mxCell id="tzGRusyJIGuZW5n90SKh-46" value="" style="endArrow=classic;html=1;" edge="1" parent="1" source="tzGRusyJIGuZW5n90SKh-44" target="tzGRusyJIGuZW5n90SKh-43">
          <mxGeometry width="50" height="50" relative="1" as="geometry">
            <mxPoint x="750" y="980" as="sourcePoint" />
            <mxPoint x="90" y="860" as="targetPoint" />
          </mxGeometry>
        </mxCell>
        <mxCell id="tzGRusyJIGuZW5n90SKh-47" value="" style="endArrow=classic;html=1;" edge="1" parent="1" source="tzGRusyJIGuZW5n90SKh-16" target="tzGRusyJIGuZW5n90SKh-5">
          <mxGeometry width="50" height="50" relative="1" as="geometry">
            <mxPoint x="-190" y="550" as="sourcePoint" />
            <mxPoint x="-90" y="520" as="targetPoint" />
          </mxGeometry>
        </mxCell>
        <mxCell id="tzGRusyJIGuZW5n90SKh-48" value="" style="endArrow=classic;html=1;entryX=0.75;entryY=1;entryDx=0;entryDy=0;" edge="1" parent="1" source="tzGRusyJIGuZW5n90SKh-5" target="tzGRusyJIGuZW5n90SKh-16">
          <mxGeometry width="50" height="50" relative="1" as="geometry">
            <mxPoint x="50" y="560" as="sourcePoint" />
            <mxPoint x="100" y="510" as="targetPoint" />
          </mxGeometry>
        </mxCell>
        <mxCell id="tzGRusyJIGuZW5n90SKh-49" value="" style="endArrow=classic;html=1;" edge="1" parent="1" source="tzGRusyJIGuZW5n90SKh-5" target="tzGRusyJIGuZW5n90SKh-43">
          <mxGeometry width="50" height="50" relative="1" as="geometry">
            <mxPoint x="40" y="720" as="sourcePoint" />
            <mxPoint x="90" y="670" as="targetPoint" />
          </mxGeometry>
        </mxCell>
      </root>
    </mxGraphModel>
  </diagram>
</mxfile>
